<?xml version="1.0" encoding="UTF-8" standalone="no"?>
<svg
   viewBox="0 0 128 128"
   version="1.1"
   id="svg1"
   sodipodi:docname="k8s.svg"
   inkscape:version="1.3.2 (091e20e, 2023-11-25)"
   xmlns:inkscape="http://www.inkscape.org/namespaces/inkscape"
   xmlns:sodipodi="http://sodipodi.sourceforge.net/DTD/sodipodi-0.dtd"
   xmlns="http://www.w3.org/2000/svg"
   xmlns:svg="http://www.w3.org/2000/svg">
  <defs
     id="defs1">
    <clipPath
       clipPathUnits="userSpaceOnUse"
       id="clipPath2">
      <path
         d="M 115.625,115.625 H 2361.4258 V 512.77771 H 115.625 Z"
         transform="matrix(0.22561125,0,0,0.22561125,-29.239347,-28.622211)"
         clip-rule="evenodd"
         id="path2" />
    </clipPath>
    <clipPath
       clipPathUnits="userSpaceOnUse"
       id="clipPath4">
      <path
         d="M 115.625,115.625 H 2361.4258 V 512.77771 H 115.625 Z"
         transform="matrix(0.22561125,0,0,0.22561125,-29.239347,-28.622211)"
         clip-rule="evenodd"
         id="path4" />
    </clipPath>
  </defs>
  <sodipodi:namedview
     id="namedview1"
     pagecolor="#ffffff"
     bordercolor="#666666"
     borderopacity="1.0"
     inkscape:showpageshadow="2"
     inkscape:pageopacity="0.0"
     inkscape:pagecheckerboard="0"
     inkscape:deskcolor="#d1d1d1"
     inkscape:zoom="2.6051276"
     inkscape:cx="86.560058"
     inkscape:cy="58.730328"
     inkscape:window-width="1488"
     inkscape:window-height="731"
     inkscape:window-x="471"
     inkscape:window-y="248"
     inkscape:window-maximized="0"
     inkscape:current-layer="svg1" />
  <path
     id="path1-8"
     clip-path="url(#clipPath2)"
     style="fill:#00acd7;fill-opacity:1;fill-rule:nonzero;stroke:none"
     d="m 43.59789,0 c -0.8,0 -1.700674,-3.3163202e-4 -2.500672,0.19966817 L 10.59756,14.899377 C 9.0975614,15.599376 7.9970289,16.899436 7.5970297,18.599434 L 0.09776855,51.500618 c -0.29999972,1.699999 0.10024142,3.398926 1.10024045,4.798921 l 21.100106,26.100073 c 1.2,1.199995 2.899254,1.99996 4.599253,2.099958 h 33.600711 c 1.799997,0.199997 3.499256,-0.59996 4.599253,-2.099958 L 86.197438,56.299539 c 0.999999,-1.399999 1.399391,-3.098922 1.199386,-4.798921 L 79.797041,18.80048 c -0.5,-1.599999 -1.700201,-2.900058 -3.200199,-3.700058 L 46.097184,0.49985894 C 45.297185,0.09985933 44.397888,0 43.59789,0 Z m -0.249241,10.696706 c 0.148437,-0.02188 0.298909,-0.02225 0.448909,0.0028 0.999999,0.1 1.799245,1.099959 1.699245,2.099958 V 13.3998 c -0.1,0.399999 -0.09967,0.800763 -0.199668,1.200763 0,0.200001 -0.09915,0.399006 -0.09915,0.599004 v 0.100523 c -0.200001,1.199997 -0.201045,2.299868 -0.201045,3.399867 0.1,0.3 0.19986,0.600049 0.499859,0.80005 v -0.100523 l 0.100522,0.80005 c 4.699997,0.499999 9.300467,2.301015 13.000464,5.201011 0.799998,0.799999 1.699296,1.598774 2.499295,2.398773 l 0.800049,-0.499859 h 0.100523 c 0.100002,0.1 0.299336,0.100522 0.399336,0.100522 0.199997,0 0.400381,-0.09967 0.600382,-0.199668 0.9,-0.599999 1.800675,-1.400483 2.500671,-2.200481 0.1,-0.100001 0.299337,-0.199335 0.399337,-0.399336 0.200005,-0.299999 0.500047,-0.600573 0.800049,-0.900573 0.100006,0 0.200191,-0.09967 0.300191,-0.199668 l 0.09915,-0.100522 c 0.4,-0.299999 0.900432,-0.499859 1.400431,-0.499859 0.5,0 1.100429,0.299527 1.400431,0.699527 0.699997,0.899999 0.499288,2.100863 -0.400713,2.800862 0,0.100001 0.1,0.09967 0,0.199669 -0.100006,0.1 -0.198814,0.09967 -0.298814,0.199668 -0.4,0.200001 -0.70024,0.40038 -1.10024,0.600381 -0.199997,0.1 -0.400385,0.200191 -0.600382,0.300191 -0.999999,0.6 -1.899484,1.199438 -2.799485,1.999436 -0.200003,0.199999 -0.300191,0.600573 -0.300191,0.900572 v 0.09915 l -0.600382,0.600381 c 1.599997,2.499998 2.800394,5.300166 3.50039,8.200165 0.599997,2.899995 0.799338,5.900548 0.399336,8.800547 l 0.80005,0.199668 c 0.1,0.299999 0.400901,0.599528 0.700904,0.699528 C 70.298101,49.499618 71.497972,49.7 72.59797,49.8 h 0.09915 c 0.199997,0.1 0.400385,0.100523 0.600381,0.100523 0.399993,0 0.799385,-8.55e-4 1.199386,0.09915 0.200004,0 0.400714,5.23e-4 0.400714,0.100523 0,0.1 0.09967,0.09915 0.199668,0.09915 0.900001,0.199997 1.699768,1.001338 1.799767,2.101336 -0.300002,0.800002 -1.099434,1.399054 -1.999435,1.399054 -0.199997,0 -0.299862,8.54e-4 -0.499859,-0.09915 -0.1,-0.1 -0.09967,-0.100522 -0.199668,-0.100522 -0.200004,0 -0.300714,-0.100523 -0.400714,-0.100523 -0.400001,-0.1 -0.700239,-0.299858 -1.10024,-0.499859 -0.199997,0 -0.399008,-0.09967 -0.599005,-0.199668 h -0.100522 c -0.999999,-0.4 -2.100201,-0.700572 -3.200199,-0.900572 h -0.100523 c -0.300002,0 -0.600053,0.10019 -0.800049,0.300191 0,0 8.54e-4,0.100522 -0.09915,0.100522 l -0.80005,-0.100522 c -1.799993,5.699991 -5.699989,10.50085 -10.799982,13.600845 l 0.30019,0.800049 c 0,0 -0.100522,-8.54e-4 -0.100522,0.09915 -0.2,0.300003 -0.200523,0.699715 -0.100523,0.999718 0.399998,0.999999 0.900099,2.000008 1.6001,2.900008 v 0.201045 c 0.199999,0.199997 0.300713,0.299862 0.400713,0.499859 0.299999,0.300003 0.499526,0.599717 0.699527,0.999718 0.100001,0.100006 0.199668,0.200191 0.199668,0.300191 0,0 0.100523,-8.55e-4 0.100523,0.09914 0.2,0.5 0.200522,1.000955 0.100523,1.500954 -0.100003,0.5 -0.500571,0.900244 -0.900573,1.100241 -0.299998,0.1 -0.500051,0.199668 -0.80005,0.199668 -0.800002,0 -1.500288,-0.500767 -1.90029,-1.200763 -0.1,0 -0.09915,-0.09915 -0.09915,-0.09915 -0.100001,-0.100006 -0.09967,-0.200191 -0.199668,-0.300191 -0.200001,-0.299995 -0.300714,-0.700239 -0.400714,-1.10024 l -0.199668,-0.600382 v -0.09914 c -0.299999,-1.099997 -0.799909,-2.099678 -1.299909,-3.099677 -0.2,-0.299995 -0.50005,-0.500381 -0.800049,-0.600381 0,-0.1 -5.23e-4,-0.100523 -0.100523,-0.100523 l -0.399336,-0.699527 c -0.999999,0.300003 -2.100202,0.699199 -3.200199,0.899196 -1.800001,0.499999 -3.600683,0.700904 -5.40068,0.700904 -2.999997,0 -5.900027,-0.500103 -8.700024,-1.6001 l -0.399336,0.80005 c 0,0.1 -5.23e-4,0.09915 -0.100523,0.09915 -0.299999,0.1 -0.600049,0.300378 -0.80005,0.600381 -0.499999,0.999999 -0.99991,1.999674 -1.299908,3.099676 l -0.199669,0.600382 c -0.1,0.4 -0.300712,0.70024 -0.400713,1.10024 -0.1,0.100007 -0.199668,0.200191 -0.199668,0.300191 -0.100001,0 -0.09915,0.09915 -0.09915,0.09915 -0.399998,0.699996 -1.100292,1.200763 -1.90029,1.200763 -0.200001,0 -0.500903,-0.09967 -0.700904,-0.199668 -0.899999,-0.5 -1.300049,-1.700341 -0.80005,-2.70034 0.1,0 0.100523,-0.100523 0.100523,-0.100523 0.1,-0.100007 0.09967,-0.200191 0.199668,-0.300191 0.300001,-0.4 0.500903,-0.799721 0.700904,-0.999718 0.199998,-0.199995 0.299337,-0.299862 0.399337,-0.499859 v -0.100522 c 0.6,-0.900001 1.200099,-1.900009 1.600099,-2.900008 0.1,-0.300003 0.09948,-0.699714 -0.100523,-0.999718 0,0 -0.09915,8.54e-4 -0.09915,-0.09915 l 0.499859,-0.700904 C 30.397463,65.299628 29.597121,64.699856 28.697122,63.99986 24.797128,60.999863 21.996955,56.900676 20.496957,52.300682 l -0.899196,0.09915 c 0,0 -5.21e-4,-0.09915 -0.100522,-0.09915 -0.199999,-0.199999 -0.500051,-0.300191 -0.80005,-0.300191 h -0.09915 c -1.199997,0.200001 -2.200716,0.499196 -3.300721,0.899195 h -0.100523 c -0.2,0 -0.399005,0.09967 -0.599004,0.199668 -0.300001,0.100003 -0.700241,0.300714 -1.100241,0.400714 -0.1,0 -0.400713,-0.1 -0.400713,0 0,0.1 8.55e-4,0.100522 -0.09915,0.100522 -0.199999,0.1 -0.299859,0.09915 -0.499858,0.09915 -0.899999,0.1 -1.800813,-0.499053 -2.000813,-1.399054 -0.2,-1.099997 0.500099,-2.101003 1.600099,-2.301004 0.1,-0.1 0.09967,-0.09915 0.199668,-0.09915 0.2,0 0.300714,-0.100523 0.400714,-0.100523 0.399999,0 0.799386,-0.100523 1.199386,-0.100523 0.200001,-0.1 0.400381,-0.09915 0.600381,-0.09915 1.199999,-0.1 2.299867,-0.300383 3.399867,-0.600382 0.300001,-0.2 0.600904,-0.399528 0.700904,-0.699527 0,0 0.09915,-5.22e-4 0.09915,-0.100522 l 0.80005,-0.199669 c -0.899998,-5.699991 0.400392,-11.500334 3.500389,-16.40033 0.1,-0.200001 0.200191,-0.299858 0.300191,-0.499859 L 22.705714,30.50792 c -0.0043,0.03044 0.0014,0.0634 -0.0083,0.09226 v -0.100523 l 0.0083,0.0083 c 0.04073,-0.286021 -0.12769,-0.627549 -0.308453,-0.808312 -0.799998,-0.799998 -1.799487,-1.399436 -2.799486,-1.999436 -0.2,-0.1 -0.40038,-0.200191 -0.600381,-0.300191 C 18.597395,27.19998 18.197152,26.9996 17.897153,26.7996 c -0.1,0 -0.30019,-0.199668 -0.30019,-0.199668 0,0 8.55e-4,-0.100523 -0.09915,-0.100523 -0.799998,-0.699998 -1.000714,-1.899486 -0.400713,-2.799486 0.299998,-0.499999 0.800431,-0.699527 1.400431,-0.699527 0.499999,0 1.000431,0.19986 1.400431,0.499859 l 0.09915,0.09915 c 0.1,0.1 0.200191,0.101044 0.30019,0.201045 0.3,0.299999 0.50005,0.599197 0.80005,0.899195 0.1,0.100001 0.300714,0.200713 0.400713,0.400714 0.700001,0.799998 1.599297,1.599626 2.499295,2.299626 0.200001,0.100001 0.400381,0.199668 0.600382,0.199668 0.199999,0 0.299336,-0.09915 0.399336,-0.09915 h 0.100523 l 0.600381,0.399336 c 3.299996,-3.499996 7.599564,-5.999403 12.29956,-6.999402 1.199999,-0.200001 2.299869,-0.399858 3.399867,-0.499859 l 0.100522,-0.80005 v -0.201045 c 0.3,-0.199999 0.399859,-0.500051 0.499859,-0.80005 0,-1.199997 3.32e-4,-2.299867 -0.199668,-3.399867 v -0.09915 c 0,-0.200001 -5.23e-4,-0.400383 -0.100523,-0.600382 -0.100001,-0.399999 -0.199668,-0.799387 -0.199668,-1.199386 v -0.501236 c 0,-0.499999 0.199003,-0.999054 0.599005,-1.399054 0.374999,-0.375 0.8064,-0.638033 1.251713,-0.703658 z m -2.350577,14.802985 -2.000813,0.400713 c -3.499996,0.799999 -6.70041,2.599115 -9.300405,5.099112 l 8.300688,5.900539 c 0.299998,0.1 0.500051,0.199668 0.800049,0.199668 0.900001,0 1.699245,-0.700098 1.699245,-1.600099 z m 4.798921,0.100523 0.600382,10.100455 c 0,0.299999 0.10019,0.499526 0.300191,0.699527 0.499999,0.7 1.500481,0.799338 2.200481,0.399337 l 8.198788,-5.800017 C 54.096838,27.999519 50.19699,26.100213 45.796993,25.600214 Z m -19.000147,9.09936 c -2.199997,3.699997 -3.200007,8.000417 -2.900008,12.200414 l 9.701119,-2.799485 c 0.399997,-0.1 0.60005,-0.19986 0.800049,-0.499859 0.599999,-0.7 0.498955,-1.701006 -0.201045,-2.301004 z m 33.30052,0 -7.499261,6.801111 c -0.200001,0.200001 -0.300714,0.399529 -0.400714,0.699527 -0.2,0.9 0.299386,1.799435 1.199386,1.999436 l 9.500074,2.70034 c 0.199997,-2.099997 0.100663,-4.199878 -0.399336,-6.299875 -0.5,-2.1 -1.300152,-4.100542 -2.400149,-5.900539 z m -18.099576,7.099925 -1.90029,2.400149 0.699527,2.900008 2.70034,1.299909 2.70034,-1.299909 0.699527,-2.900008 -1.90029,-2.400149 z m 9.89941,8.000497 c -0.300002,0 -0.599196,0.09967 -0.899195,0.199668 -0.7,0.300003 -1.100572,1.100291 -0.900572,1.90029 l 3.899726,9.399552 c 2.399998,-1.499999 4.499686,-3.599685 5.999684,-5.999685 0.800002,-1.099996 1.400291,-2.399202 1.90029,-3.799203 z m -16.900189,0.100523 -9.89941,1.699245 c 1.4,3.999996 4.200309,7.500267 7.700306,9.800264 l 3.799203,-9.199883 c 0.2,-0.299999 0.200523,-0.699719 0.100523,-0.999718 -0.100003,-0.799998 -0.900624,-1.299908 -1.700622,-1.299908 z m 8.292426,4.092509 c -0.449219,0.01367 -0.880002,0.232268 -1.192501,0.607266 l -4.899444,8.899693 c 1.999998,0.599997 4.199878,0.999718 6.299875,0.999718 1.499998,0 2.90044,-0.199857 4.300439,-0.499859 0.700001,-0.200001 1.300292,-0.299337 1.90029,-0.399337 l -4.800298,-8.700024 c -0.299999,-0.3 -0.500051,-0.500903 -0.80005,-0.700904 -0.2625,-0.149999 -0.53878,-0.214757 -0.808311,-0.206553 z"
     transform="matrix(1.3481347,0,0,1.3911223,5.0546741,5.2043005)" />
</svg>
